<svg width="97" height="16" viewBox="0 0 97 16" fill="none" xmlns="http://www.w3.org/2000/svg">
<g clip-path="url(#clip0_1179_3102)">
<path d="M15.8794 15.9875L2.82794 2.87318V15.9875H0V0H3.50854L16.5388 13.1143V0H19.3668V15.9875H15.8794Z" fill="#4C53F0"/>
<path d="M25.0714 15.9875V6.50918H27.8994H34.369H37.8873V8.89817H27.8994V13.5985H42.9227V15.9875H25.0714ZM25.0714 2.37985V0H42.2616V2.37985H34.369H27.8994H25.0714Z" fill="#4C53F0"/>
<path d="M60.2152 7.50497C61.2889 7.50497 62.1027 7.29181 62.6599 6.867C63.217 6.44219 63.4947 5.83162 63.4947 5.0292C63.4947 3.26906 62.3187 2.37985 59.9553 2.37985H51.5365H50.0194H49.7302V7.5065H50.0194H51.5365H60.2152V7.50497ZM47.1931 2.37985V0H49.7319H60.6376C62.4438 0 63.857 0.444604 64.8673 1.34447C65.8776 2.24434 66.3942 3.47156 66.3942 5.0292C66.3942 5.73569 66.2805 6.36453 66.0644 6.90506C65.837 7.45625 65.5284 7.92065 65.1256 8.30739C64.7341 8.70327 64.2582 9.01389 63.7124 9.24532C63.1764 9.48742 62.5884 9.65186 61.9581 9.75844L66.529 15.9875H63.2592L58.6364 9.89396H50.021V15.9875H47.1947V8.72459V7.5065V2.37985H47.1931Z" fill="#4C53F0"/>
<path d="M73.7621 0H70.9358V15.9875H73.7621V0Z" fill="#4C53F0"/>
<path d="M82.2946 6.50918H92.2826V8.89817H82.2946V15.9875H79.4683V6.50918H82.2946ZM79.4683 2.37985V0H96.6683V2.37985H82.2963H79.4683Z" fill="#4C53F0"/>
</g>
<defs>
<clipPath id="clip0_1179_3102">
<rect width="96.6667" height="16" fill="white"/>
</clipPath>
</defs>
</svg>
