<svg width="18" height="17" viewBox="0 0 18 17" fill="none" xmlns="http://www.w3.org/2000/svg">
<path d="M8.99999 0.666992C4.39582 0.666992 0.666658 4.39616 0.666658 9.00033C0.665713 10.7497 1.21567 12.455 2.2385 13.8742C3.26134 15.2934 4.70511 16.3546 6.36499 16.907C6.78166 16.9795 6.93749 16.7295 6.93749 16.5103C6.93749 16.3128 6.92666 15.657 6.92666 14.9587C4.83332 15.3445 4.29166 14.4487 4.12499 13.9795C4.03082 13.7395 3.62499 13.0003 3.27082 12.802C2.97916 12.6462 2.56249 12.2603 3.25999 12.2503C3.91666 12.2395 4.38499 12.8545 4.54166 13.1045C5.29166 14.3645 6.48999 14.0103 6.96832 13.792C7.04166 13.2503 7.25999 12.8862 7.49999 12.6778C5.64582 12.4695 3.70832 11.7503 3.70832 8.56283C3.70832 7.65616 4.03082 6.90699 4.56249 6.32283C4.47916 6.11449 4.18749 5.26033 4.64582 4.11449C4.64582 4.11449 5.34332 3.89616 6.93749 4.96949C7.61588 4.78121 8.3168 4.68645 9.02082 4.68783C9.72916 4.68783 10.4375 4.78116 11.1042 4.96866C12.6975 3.88533 13.3958 4.11533 13.3958 4.11533C13.8542 5.26116 13.5625 6.11533 13.4792 6.32366C14.01 6.90699 14.3333 7.64616 14.3333 8.56283C14.3333 11.7612 12.3858 12.4695 10.5317 12.6778C10.8333 12.9378 11.0942 13.4378 11.0942 14.2195C11.0942 15.3337 11.0833 16.2295 11.0833 16.5112C11.0833 16.7295 11.24 16.9895 11.6567 16.9062C13.3108 16.3477 14.7483 15.2845 15.7666 13.8663C16.7849 12.4481 17.3329 10.7463 17.3333 9.00033C17.3333 4.39616 13.6042 0.666992 8.99999 0.666992Z" fill="#6B6B73"/>
</svg>
