<svg width="13" height="18" viewBox="0 0 13 18" fill="none" xmlns="http://www.w3.org/2000/svg">
<path fill-rule="evenodd" clip-rule="evenodd" d="M6.99992 0.666656C6.53968 0.666656 6.16658 1.03975 6.16658 1.49999C6.16658 1.96023 6.53968 2.33332 6.99992 2.33332H11.1666V15.6667H6.99992C6.53968 15.6667 6.16658 16.0398 6.16658 16.5C6.16658 16.9602 6.53968 17.3333 6.99992 17.3333H11.9999C12.4602 17.3333 12.8333 16.9602 12.8333 16.5V1.49999C12.8333 1.03975 12.4602 0.666656 11.9999 0.666656H6.99992ZM5.33325 8.16666C4.87301 8.16666 4.49992 8.53975 4.49992 8.99999C4.49992 9.46023 4.87301 9.83332 5.33325 9.83332H8.66658C9.12682 9.83332 9.49992 9.46023 9.49992 8.99999C9.49992 8.53975 9.12682 8.16666 8.66658 8.16666H5.33325ZM5.08917 5.0774C5.41461 5.40284 5.41461 5.93048 5.08917 6.25591L2.3451 8.99999L5.08917 11.7441C5.41461 12.0695 5.41461 12.5971 5.08917 12.9226C4.76374 13.248 4.2361 13.248 3.91066 12.9226L0.577717 9.58963C0.577588 9.5895 0.577459 9.58937 0.57733 9.58924C0.373932 9.38585 0.297657 9.10347 0.348507 8.84083C0.379017 8.68325 0.455291 8.53277 0.57733 8.41073L3.91066 5.0774C4.2361 4.75196 4.76374 4.75196 5.08917 5.0774Z" fill="#8E8E94"/>
</svg>
