<svg width="16" height="16" viewBox="0 0 16 16" fill="none" xmlns="http://www.w3.org/2000/svg">
<path d="M1.33333 0.5H14.6667C14.8877 0.5 15.0996 0.587797 15.2559 0.744078C15.4122 0.900358 15.5 1.11232 15.5 1.33333V14.6667C15.5 14.8877 15.4122 15.0996 15.2559 15.2559C15.0996 15.4122 14.8877 15.5 14.6667 15.5H1.33333C1.11232 15.5 0.900358 15.4122 0.744078 15.2559C0.587797 15.0996 0.5 14.8877 0.5 14.6667V1.33333C0.5 1.11232 0.587797 0.900358 0.744078 0.744078C0.900358 0.587797 1.11232 0.5 1.33333 0.5ZM2.16667 2.16667V13.8333H13.8333V2.16667H2.16667ZM12.4167 11.2833L13.2125 12.0783V12.12H9.11167V12.0783L9.94833 11.2833C10.0317 11.2 10.0733 11.1167 10.0733 10.9908V6.05333C10.0733 5.84333 10.0733 5.55083 10.1158 5.3L7.35417 12.2042H7.3125L4.46667 5.84333C4.425 5.67667 4.38333 5.67667 4.34167 5.59333V9.77667C4.29917 10.07 4.34167 10.3208 4.46667 10.5725L5.59667 12.0783V12.12H2.58333V12.0783L3.71333 10.53C3.83833 10.28 3.88 9.98667 3.83833 9.735V5.13333C3.83833 4.92417 3.79667 4.6725 3.63 4.50583L2.87583 3.45833V3.41667H5.805L8.23167 8.815L10.3667 3.41667H13.2125V3.45833L12.4175 4.37917C12.3342 4.4625 12.2925 4.58833 12.2925 4.67167V11.0325C12.2925 11.1158 12.3342 11.2417 12.4175 11.2833H12.4167Z" fill="#6B6B73"/>
</svg>
