<svg width="73" height="68" viewBox="0 0 73 68" fill="none" xmlns="http://www.w3.org/2000/svg">
<g clip-path="url(#clip0_1148_3386)">
<path d="M68.8506 0.634094L40.8108 21.4587L45.9971 9.17207L68.8506 0.634094Z" fill="#7A80FF"/>
<path d="M4.12106 0.634094L31.9354 21.6558L27.0029 9.17207L4.12106 0.634094Z" fill="#7A80FF"/>
<path d="M58.7615 48.9059L51.294 60.3475L67.2726 64.7427L71.8662 49.1597L58.7615 48.9059Z" fill="#7B81FF"/>
<path d="M1.16211 49.1597L5.72742 64.7427L21.706 60.3475L14.2385 48.9059L1.16211 49.1597Z" fill="#7B81FF"/>
<path d="M20.8043 29.5742L16.351 36.3101L32.2161 37.0148L31.6533 19.9658L20.8043 29.5742Z" fill="#7B81FF"/>
<path d="M52.1674 29.5742L41.178 19.7687L40.8108 37.0148L56.649 36.3101L52.1674 29.5742Z" fill="#7B81FF"/>
<path d="M21.706 60.3475L31.2308 55.6971L23.0019 49.2717L21.706 60.3475Z" fill="#7B81FF"/>
<path d="M41.7409 55.6971L51.294 60.3475L49.9698 49.2717L41.7409 55.6971Z" fill="#7B81FF"/>
<path d="M51.294 60.3475L41.7409 55.6971L42.5022 61.9255L42.4172 64.5456L51.294 60.3475Z" fill="#BDC0FF"/>
<path d="M21.706 60.3475L30.5828 64.5456L30.5261 61.9255L31.2308 55.6971L21.706 60.3475Z" fill="#BDC0FF"/>
<path d="M30.7232 45.1586L22.7764 42.8193L28.3838 40.2545L30.7232 45.1586Z" fill="#1B22BF"/>
<path d="M42.2485 45.1586L44.5878 40.2545L50.2236 42.8193L42.2485 45.1586Z" fill="#1B22BF"/>
<path d="M21.706 60.3475L23.0586 48.9059L14.2385 49.1597L21.706 60.3475Z" fill="#646BFF"/>
<path d="M49.9414 48.9059L51.294 60.3475L58.7615 49.1597L49.9414 48.9059Z" fill="#646BFF"/>
<path d="M56.649 36.3101L40.8108 37.0148L42.2768 45.1586L44.6162 40.2544L50.2519 42.8192L56.649 36.3101Z" fill="#646BFF"/>
<path d="M22.7764 42.8192L28.4122 40.2544L30.7232 45.1586L32.2161 37.0148L16.351 36.3101L22.7764 42.8192Z" fill="#646BFF"/>
<path d="M16.351 36.3101L23.0019 49.2716L22.7764 42.8192L16.351 36.3101Z" fill="#7B81FF"/>
<path d="M50.2519 42.8192L49.9698 49.2716L56.649 36.3101L50.2519 42.8192Z" fill="#7B81FF"/>
<path d="M32.2161 37.0148L30.7232 45.1586L32.5833 54.767L33.0058 42.1146L32.2161 37.0148Z" fill="#7B81FF"/>
<path d="M40.8108 37.0148L40.0509 42.0862L40.3883 54.767L42.2768 45.1586L40.8108 37.0148Z" fill="#7B81FF"/>
<path d="M42.2768 45.1586L40.3883 54.7671L41.7409 55.6971L49.9698 49.2717L50.2519 42.8193L42.2768 45.1586Z" fill="#8C91FF"/>
<path d="M22.7764 42.8193L23.0019 49.2717L31.2308 55.6971L32.5833 54.7671L30.7232 45.1586L22.7764 42.8193Z" fill="#8C91FF"/>
<path d="M42.4172 64.5456L42.5022 61.9255L41.7976 61.3045H31.174L30.5261 61.9255L30.5828 64.5456L21.706 60.3475L24.8053 62.8825L31.089 67.2507H41.8827L48.1947 62.8825L51.294 60.3475L42.4172 64.5456Z" fill="#A5A9FF"/>
<path d="M41.7409 55.6971L40.3883 54.767H32.5833L31.2308 55.6971L30.5261 61.9255L31.174 61.3045H41.7976L42.5022 61.9255L41.7409 55.6971Z" fill="#0007A3"/>
<path d="M70.0345 22.8113L72.4291 11.3144L68.8506 0.634094L41.7409 20.7541L52.1674 29.5742L66.9054 33.8857L70.1748 30.0818L68.7655 29.068L71.0198 27.0108L69.2731 25.6582L71.5274 23.9384L70.0345 22.8113Z" fill="#343BD8"/>
<path d="M0.570889 11.3144L2.96555 22.8113L1.44425 23.9384L3.69855 25.6582L1.98018 27.0108L4.23448 29.068L2.82519 30.0818L6.06627 33.8857L20.8043 29.5742L31.2308 20.7541L4.12105 0.634094L0.570889 11.3144Z" fill="#343BD8"/>
<path d="M66.9054 33.8857L52.1674 29.5742L56.649 36.3101L49.9698 49.2716L58.7615 49.1596H71.8662L66.9054 33.8857Z" fill="#8C91FF"/>
<path d="M20.8043 29.5742L6.06627 33.8857L1.16211 49.1596H14.2385L23.0019 49.2716L16.351 36.3101L20.8043 29.5742Z" fill="#8C91FF"/>
<path d="M40.8108 37.0148L41.7409 20.754L46.0255 9.17206H27.0029L31.2308 20.754L32.2161 37.0148L32.555 42.1429L32.5833 54.767H40.3883L40.445 42.1429L40.8108 37.0148Z" fill="#8C91FF"/>
</g>
<defs>
<clipPath id="clip0_1148_3386">
<rect width="72" height="66.7584" fill="white" transform="translate(0.5 0.563232)"/>
</clipPath>
</defs>
</svg>
