<svg width="17" height="15" viewBox="0 0 17 15" fill="none" xmlns="http://www.w3.org/2000/svg">
<path d="M11.75 2.62477C11.1166 2.62466 10.5086 2.8732 10.0566 3.31691C9.60463 3.76061 9.34491 4.36402 9.33334 4.99727L9.31001 6.30977C9.30864 6.38024 9.29239 6.44963 9.26232 6.51337C9.23226 6.57712 9.18905 6.63379 9.13554 6.67967C9.08203 6.72555 9.01943 6.75959 8.95184 6.77957C8.88424 6.79955 8.81319 6.80501 8.74334 6.7956L7.44251 6.61894C5.73084 6.3856 4.09084 5.59727 2.51751 4.28644C2.01917 7.04477 2.99251 8.9556 5.33667 10.4298L6.79251 11.3448C6.86168 11.3882 6.91915 11.448 6.95988 11.5188C7.00061 11.5896 7.02337 11.6694 7.02617 11.751C7.02896 11.8327 7.01171 11.9137 6.97592 11.9872C6.94012 12.0606 6.88688 12.1242 6.82084 12.1723L5.49417 13.1414C6.28334 13.1906 7.03251 13.1556 7.65417 13.0323C11.5858 12.2473 14.2 9.28894 14.2 4.40894C14.2 4.0106 13.3567 2.62477 11.75 2.62477ZM7.66667 4.96644C7.68122 4.16315 7.93241 3.38199 8.38881 2.72079C8.8452 2.05958 9.48651 1.5477 10.2324 1.24924C10.9784 0.950782 11.7958 0.879003 12.5823 1.04289C13.3688 1.20678 14.0895 1.59906 14.6542 2.1706C15.2467 2.16644 15.7508 2.31644 16.8783 1.6331C16.5992 2.99977 16.4617 3.5931 15.8667 4.40894C15.8667 10.7773 11.9525 13.8739 7.98084 14.6664C5.25751 15.2098 1.29751 14.3173 0.162506 13.1323C0.740839 13.0873 3.09084 12.8348 4.44917 11.8406C3.30001 11.0831 -1.27416 8.39144 1.73167 1.15477C3.14251 2.80227 4.57334 3.92394 6.02334 4.51894C6.98834 4.91477 7.22501 4.90644 7.66751 4.96727L7.66667 4.96644Z" fill="#6B6B73"/>
</svg>
