<svg width="14" height="12" viewBox="0 0 14 12" fill="none" xmlns="http://www.w3.org/2000/svg">
<path fill-rule="evenodd" clip-rule="evenodd" d="M11 0.666672C11.3682 0.666672 11.6667 0.965149 11.6667 1.33334V9.72386L12.5286 8.86193C12.7889 8.60158 13.2111 8.60158 13.4714 8.86193C13.7317 9.12228 13.7317 9.54439 13.4714 9.80474L11.4714 11.8047C11.2111 12.0651 10.7889 12.0651 10.5286 11.8047L8.52859 9.80474C8.26824 9.54439 8.26824 9.12228 8.52859 8.86193C8.78894 8.60158 9.21105 8.60158 9.4714 8.86193L10.3333 9.72386V1.33334C10.3333 0.965149 10.6318 0.666672 11 0.666672ZM0.999995 1.33334C0.631805 1.33334 0.333328 1.63182 0.333328 2.00001C0.333328 2.36819 0.631805 2.66667 0.999995 2.66667H7.66666C8.03485 2.66667 8.33333 2.36819 8.33333 2.00001C8.33333 1.63182 8.03485 1.33334 7.66666 1.33334H0.999995ZM0.333328 6C0.333328 5.63181 0.631805 5.33334 0.999995 5.33334H6.33333C6.70152 5.33334 7 5.63181 7 6C7 6.3682 6.70152 6.66667 6.33333 6.66667H0.999995C0.631805 6.66667 0.333328 6.3682 0.333328 6ZM0.999995 9.33334C0.631805 9.33334 0.333328 9.63181 0.333328 10C0.333328 10.3682 0.631805 10.6667 0.999995 10.6667H4.33333C4.70152 10.6667 5 10.3682 5 10C5 9.63181 4.70152 9.33334 4.33333 9.33334H0.999995Z" fill="#9A98BC"/>
</svg>
