<svg width="18" height="18" viewBox="0 0 18 18" fill="none" xmlns="http://www.w3.org/2000/svg">
<path fill-rule="evenodd" clip-rule="evenodd" d="M2.33335 9.00001C2.33335 5.31811 5.31812 2.33334 9.00002 2.33334C12.6819 2.33334 15.6667 5.31811 15.6667 9.00001C15.6667 12.6819 12.6819 15.6667 9.00002 15.6667C5.31812 15.6667 2.33335 12.6819 2.33335 9.00001ZM9.00002 0.666672C4.39765 0.666672 0.666687 4.39763 0.666687 9.00001C0.666687 13.6024 4.39765 17.3333 9.00002 17.3333C13.6024 17.3333 17.3334 13.6024 17.3334 9.00001C17.3334 4.39763 13.6024 0.666672 9.00002 0.666672ZM9.00002 13.714L13.7141 9L9.00002 4.28595L4.28598 9L9.00002 13.714ZM6.643 9L9.00002 6.64298L11.357 9L9.00002 11.357L6.643 9Z" fill="currentColor"/>
</svg>
