<svg width="24" height="24" viewBox="0 0 24 24" fill="none" xmlns="http://www.w3.org/2000/svg">
<path d="M12 24C18.6274 24 24 18.6274 24 12C24 5.37258 18.6274 0 12 0C5.37258 0 0 5.37258 0 12C0 18.6274 5.37258 24 12 24Z" fill="#F3BA2F"/>
<path fill-rule="evenodd" clip-rule="evenodd" d="M15.1122 13.2761L16.9224 15.0811L12.0017 19.9965L7.08623 15.0811L8.89638 13.2761L12.0017 16.3815L15.1122 13.2761ZM12.0017 10.1656L13.8379 12.0017L12.0017 13.8379L10.1708 12.0069V12.0017L10.4933 11.6792L10.6493 11.5232L12.0017 10.1656ZM5.81185 10.1916L7.62199 12.0017L5.81185 13.8067L4.00171 11.9965L5.81185 10.1916ZM18.1916 10.1916L20.0017 12.0017L18.1916 13.8067L16.3814 11.9965L18.1916 10.1916ZM12.0017 4.00174L16.9172 8.91721L15.107 10.7274L12.0017 7.61682L8.89638 10.7222L7.08623 8.91721L12.0017 4.00174Z" fill="#131415"/>
</svg>
