<svg width="12" height="12" viewBox="0 0 12 12" fill="none" xmlns="http://www.w3.org/2000/svg">
    <path fill-rule="evenodd" clip-rule="evenodd" d="M10.3199 11.7327C10.6719 12.0889 11.2426 12.0889 11.5946 11.7327C11.9466 11.3765 11.9466 10.799 11.5946 10.4428L7.27471 6.0715L11.736 1.55705C12.088 1.20086 12.088 0.623368 11.736 0.267179C11.384 -0.0890092 10.8133 -0.0890092 10.4613 0.267179L6.00002 4.78163L1.53868 0.267141C1.18669 -0.0890471 0.615989 -0.0890473 0.263996 0.267142C-0.0879989 0.623331 -0.0879984 1.20083 0.263996 1.55701L4.72533 6.0715L0.405316 10.443C0.053322 10.7992 0.0533216 11.3767 0.405316 11.7329C0.757311 12.089 1.32801 12.089 1.68 11.7329L6.00002 7.36137L10.3199 11.7327Z" fill="currentColor"/>
</svg>
