<svg id="64139016" viewBox="0 0 128 128" xmlns="http://www.w3.org/2000/svg" xmlns:xlink="http://www.w3.org/1999/xlink"><g transform="matrix(1,0,0,1,0,0)"><g id="64139016" opacity="1" style="mix-blend-mode:normal"><g><defs><clipPath id="64139016_clipPath" x="-50%" y="-50%" width="200%" height="200%"><path d="M4,128c-2.20914,0 -4,-1.79086 -4,-4v-120c0,-2.20914 1.79086,-4 4,-4h120c2.20914,0 4,1.79086 4,4v120c0,2.20914 -1.79086,4 -4,4z" fill="white" clip-rule="nonzero"></path></clipPath></defs><g clip-path="url(#64139016_clipPath)"><g transform="matrix(1,0,0,1,8,1.5)"><g id="64139049" opacity="1" style="mix-blend-mode:normal"><g><g><g transform="matrix(1,0,0,1,2,1.5)"><g id="64143572" opacity="1" style="mix-blend-mode:normal"><g><defs><clipPath id="64143572_clipPath" x="-50%" y="-50%" width="200%" height="200%"><path d="M0,121.1603v-121.1603h105.7593v121.1603z" fill="white" clip-rule="nonzero"></path></clipPath></defs><g clip-path="url(#64143572_clipPath)"><g transform="matrix(1,0,0,1,26.2047,35.2756)"><g id="64139056" opacity="1" style="mix-blend-mode:normal"><g><g><path id="64139056_fill_path" d="M 28.22045 0.00005000000000165983 C 28.22045 0.00005000000000165983, 3.7815499999999993 13.858250000000002, 3.7815499999999993 13.858250000000002 C 3.7815499999999993 13.858250000000002, 3.7815499999999993 41.57485, 3.7815499999999993 41.57485 C 3.7815499999999993 41.57485, 28.22045 55.43315, 28.22045 55.43315 C 28.22045 55.43315, 52.65935 41.57485, 52.65935 41.57485 C 52.65935 41.57485, 52.65935 13.858250000000002, 52.65935 13.858250000000002 C 52.65935 13.858250000000002, 28.22045 0.00005000000000165983, 28.22045 0.00005000000000165983 Z" fill-rule="nonzero" fill="rgb(255, 255, 255)" fill-opacity="1" style="mix-blend-mode:NORMAL"></path><defs><clipPath id="lg3g5smrllsf1c6jqyn" clipPathUnits="userSpaceOnUse"><path d="M 28.22045 0.00005000000000165983 C 28.22045 0.00005000000000165983, 3.7815499999999993 13.858250000000002, 3.7815499999999993 13.858250000000002 C 3.7815499999999993 13.858250000000002, 3.7815499999999993 41.57485, 3.7815499999999993 41.57485 C 3.7815499999999993 41.57485, 28.22045 55.43315, 28.22045 55.43315 C 28.22045 55.43315, 52.65935 41.57485, 52.65935 41.57485 C 52.65935 41.57485, 52.65935 13.858250000000002, 52.65935 13.858250000000002 C 52.65935 13.858250000000002, 28.22045 0.00005000000000165983, 28.22045 0.00005000000000165983 Z"></path></clipPath></defs><path id="64139056_stroke_path" d="M 28.22045 0.00005000000000165983 C 28.22045 0.00005000000000165983, 3.7815499999999993 13.858250000000002, 3.7815499999999993 13.858250000000002 C 3.7815499999999993 13.858250000000002, 3.7815499999999993 41.57485, 3.7815499999999993 41.57485 C 3.7815499999999993 41.57485, 28.22045 55.43315, 28.22045 55.43315 C 28.22045 55.43315, 52.65935 41.57485, 52.65935 41.57485 C 52.65935 41.57485, 52.65935 13.858250000000002, 52.65935 13.858250000000002 C 52.65935 13.858250000000002, 28.22045 0.00005000000000165983, 28.22045 0.00005000000000165983 z" fill="none" stroke="rgb(76, 83, 240)" stroke-width="10.0788" stroke-linecap="butt" stroke-linejoin="butt" stroke-dasharray="0 0" stroke-opacity="1" clip-path="url(#lg3g5smrllsf1c6jqyn)"></path></g></g></g></g><g transform="matrix(1,0,0,1,7.7665,7.5)"><g id="64143568" opacity="1" style="mix-blend-mode:normal"><g><g><path id="64143568_fill_path" d="M49.1784,54.5369v-54.5369h-5.0393v54.5211l-44.1391,24.7818l2.4671,4.3942l44.1781,-24.8038l42.3343,24.2921l2.5081,-4.3709z" fill-rule="evenodd" fill="rgb(76, 83, 240)" fill-opacity="1" style="mix-blend-mode:NORMAL"></path></g></g></g></g></g></g></g></g><g transform="matrix(1,0,0,1,9,9.5)"><g id="64139050" opacity="1" style="mix-blend-mode:normal"><g><g><path id="64139050_stroke_path" d="M0,81.72973l46,26.27027l46,-26.27027v-54.48649l-46,-27.24324l-46,27.24324z" fill="none" stroke="rgb(171, 173, 246)" stroke-width="5.0394" stroke-linecap="butt" stroke-linejoin="butt" stroke-dasharray="0 0" stroke-opacity="1"></path></g></g></g></g><g transform="matrix(1,0,0,1,0,83.5588)"><g id="64139054" opacity="1" style="mix-blend-mode:normal"><g><g><path id="64139054_fill_path" d="M17.6266,8.7939c0,0.9225 -0.1454,1.8397 -0.431,2.7173c-0.2856,0.8776 -0.7085,1.7052 -1.2523,2.4518c-0.5438,0.7466 -1.2013,1.4026 -1.9495,1.9452c-0.7482,0.5426 -1.5776,0.9647 -2.4572,1.2496c-0.8796,0.2849 -1.7988,0.43 -2.7233,0.43c-0.9245,0 -1.8437,-0.1451 -2.7233,-0.43c-0.8796,-0.2849 -1.709,-0.707 -2.4572,-1.2496c-0.7482,-0.5426 -1.4057,-1.1986 -1.9495,-1.9452c-0.5438,-0.7466 -0.9667,-1.5742 -1.2523,-2.4518c-0.2856,-0.8776 -0.431,-1.7948 -0.431,-2.7173c0,-0.9225 0.1454,-1.8397 0.431,-2.7173c0.2856,-0.8776 0.7085,-1.7052 1.2523,-2.4518c0.5438,-0.7466 1.2013,-1.4026 1.9495,-1.9452c0.7482,-0.5426 1.5776,-0.9647 2.4572,-1.2496c0.8796,-0.2849 1.7988,-0.43 2.7233,-0.43c0.9245,0 1.8437,0.1451 2.7233,0.43c0.8796,0.2849 1.709,0.707 2.4572,1.2496c0.7482,0.5426 1.4057,1.1986 1.9495,1.9452c0.5438,0.7466 0.9667,1.5742 1.2523,2.4518c0.2856,0.8776 0.431,1.7948 0.431,2.7173z" fill-rule="nonzero" fill="rgb(255, 255, 255)" fill-opacity="1" style="mix-blend-mode:NORMAL"></path><defs><clipPath id="lg3g5smr7x2aroj7zx" clipPathUnits="userSpaceOnUse"><path d="M17.6266,8.7939c0,0.9225 -0.1454,1.8397 -0.431,2.7173c-0.2856,0.8776 -0.7085,1.7052 -1.2523,2.4518c-0.5438,0.7466 -1.2013,1.4026 -1.9495,1.9452c-0.7482,0.5426 -1.5776,0.9647 -2.4572,1.2496c-0.8796,0.2849 -1.7988,0.43 -2.7233,0.43c-0.9245,0 -1.8437,-0.1451 -2.7233,-0.43c-0.8796,-0.2849 -1.709,-0.707 -2.4572,-1.2496c-0.7482,-0.5426 -1.4057,-1.1986 -1.9495,-1.9452c-0.5438,-0.7466 -0.9667,-1.5742 -1.2523,-2.4518c-0.2856,-0.8776 -0.431,-1.7948 -0.431,-2.7173c0,-0.9225 0.1454,-1.8397 0.431,-2.7173c0.2856,-0.8776 0.7085,-1.7052 1.2523,-2.4518c0.5438,-0.7466 1.2013,-1.4026 1.9495,-1.9452c0.7482,-0.5426 1.5776,-0.9647 2.4572,-1.2496c0.8796,-0.2849 1.7988,-0.43 2.7233,-0.43c0.9245,0 1.8437,0.1451 2.7233,0.43c0.8796,0.2849 1.709,0.707 2.4572,1.2496c0.7482,0.5426 1.4057,1.1986 1.9495,1.9452c0.5438,0.7466 0.9667,1.5742 1.2523,2.4518c0.2856,0.8776 0.431,1.7948 0.431,2.7173z"></path></clipPath></defs><path id="64139054_stroke_path" d="M17.6266,8.7939c0,0.9225 -0.1454,1.8397 -0.431,2.7173c-0.2856,0.8776 -0.7085,1.7052 -1.2523,2.4518c-0.5438,0.7466 -1.2013,1.4026 -1.9495,1.9452c-0.7482,0.5426 -1.5776,0.9647 -2.4572,1.2496c-0.8796,0.2849 -1.7988,0.43 -2.7233,0.43c-0.9245,0 -1.8437,-0.1451 -2.7233,-0.43c-0.8796,-0.2849 -1.709,-0.707 -2.4572,-1.2496c-0.7482,-0.5426 -1.4057,-1.1986 -1.9495,-1.9452c-0.5438,-0.7466 -0.9667,-1.5742 -1.2523,-2.4518c-0.2856,-0.8776 -0.431,-1.7948 -0.431,-2.7173c0,-0.9225 0.1454,-1.8397 0.431,-2.7173c0.2856,-0.8776 0.7085,-1.7052 1.2523,-2.4518c0.5438,-0.7466 1.2013,-1.4026 1.9495,-1.9452c0.7482,-0.5426 1.5776,-0.9647 2.4572,-1.2496c0.8796,-0.2849 1.7988,-0.43 2.7233,-0.43c0.9245,0 1.8437,0.1451 2.7233,0.43c0.8796,0.2849 1.709,0.707 2.4572,1.2496c0.7482,0.5426 1.4057,1.1986 1.9495,1.9452c0.5438,0.7466 0.9667,1.5742 1.2523,2.4518c0.2856,0.8776 0.431,1.7948 0.431,2.7173z" fill="none" stroke="rgb(76, 83, 240)" stroke-width="10.0788" stroke-linecap="butt" stroke-linejoin="butt" stroke-dasharray="0 0" stroke-opacity="1" clip-path="url(#lg3g5smr7x2aroj7zx)"></path></g></g></g></g><g transform="matrix(1,0,0,1,92,83.5588)"><g id="64139055" opacity="1" style="mix-blend-mode:normal"><g><g><path id="64139055_fill_path" d="M17.6266,8.7939c0,0.9225 -0.1454,1.8397 -0.431,2.7173c-0.2856,0.8776 -0.7085,1.7052 -1.2523,2.4518c-0.5438,0.7466 -1.2013,1.4026 -1.9495,1.9452c-0.7482,0.5426 -1.5776,0.9647 -2.4572,1.2496c-0.8796,0.2849 -1.7988,0.43 -2.7233,0.43c-0.9245,0 -1.8437,-0.1451 -2.7233,-0.43c-0.8796,-0.2849 -1.709,-0.707 -2.4572,-1.2496c-0.7482,-0.5426 -1.4057,-1.1986 -1.9495,-1.9452c-0.5438,-0.7466 -0.9667,-1.5742 -1.2523,-2.4518c-0.2856,-0.8776 -0.431,-1.7948 -0.431,-2.7173c0,-0.9225 0.1454,-1.8397 0.431,-2.7173c0.2856,-0.8776 0.7085,-1.7052 1.2523,-2.4518c0.5438,-0.7466 1.2013,-1.4026 1.9495,-1.9452c0.7482,-0.5426 1.5776,-0.9647 2.4572,-1.2496c0.8796,-0.2849 1.7988,-0.43 2.7233,-0.43c0.9245,0 1.8437,0.1451 2.7233,0.43c0.8796,0.2849 1.709,0.707 2.4572,1.2496c0.7482,0.5426 1.4057,1.1986 1.9495,1.9452c0.5438,0.7466 0.9667,1.5742 1.2523,2.4518c0.2856,0.8776 0.431,1.7948 0.431,2.7173z" fill-rule="nonzero" fill="rgb(255, 255, 255)" fill-opacity="1" style="mix-blend-mode:NORMAL"></path><defs><clipPath id="lg3g5smr0ul9pgp1m0sp" clipPathUnits="userSpaceOnUse"><path d="M17.6266,8.7939c0,0.9225 -0.1454,1.8397 -0.431,2.7173c-0.2856,0.8776 -0.7085,1.7052 -1.2523,2.4518c-0.5438,0.7466 -1.2013,1.4026 -1.9495,1.9452c-0.7482,0.5426 -1.5776,0.9647 -2.4572,1.2496c-0.8796,0.2849 -1.7988,0.43 -2.7233,0.43c-0.9245,0 -1.8437,-0.1451 -2.7233,-0.43c-0.8796,-0.2849 -1.709,-0.707 -2.4572,-1.2496c-0.7482,-0.5426 -1.4057,-1.1986 -1.9495,-1.9452c-0.5438,-0.7466 -0.9667,-1.5742 -1.2523,-2.4518c-0.2856,-0.8776 -0.431,-1.7948 -0.431,-2.7173c0,-0.9225 0.1454,-1.8397 0.431,-2.7173c0.2856,-0.8776 0.7085,-1.7052 1.2523,-2.4518c0.5438,-0.7466 1.2013,-1.4026 1.9495,-1.9452c0.7482,-0.5426 1.5776,-0.9647 2.4572,-1.2496c0.8796,-0.2849 1.7988,-0.43 2.7233,-0.43c0.9245,0 1.8437,0.1451 2.7233,0.43c0.8796,0.2849 1.709,0.707 2.4572,1.2496c0.7482,0.5426 1.4057,1.1986 1.9495,1.9452c0.5438,0.7466 0.9667,1.5742 1.2523,2.4518c0.2856,0.8776 0.431,1.7948 0.431,2.7173z"></path></clipPath></defs><path id="64139055_stroke_path" d="M17.6266,8.7939c0,0.9225 -0.1454,1.8397 -0.431,2.7173c-0.2856,0.8776 -0.7085,1.7052 -1.2523,2.4518c-0.5438,0.7466 -1.2013,1.4026 -1.9495,1.9452c-0.7482,0.5426 -1.5776,0.9647 -2.4572,1.2496c-0.8796,0.2849 -1.7988,0.43 -2.7233,0.43c-0.9245,0 -1.8437,-0.1451 -2.7233,-0.43c-0.8796,-0.2849 -1.709,-0.707 -2.4572,-1.2496c-0.7482,-0.5426 -1.4057,-1.1986 -1.9495,-1.9452c-0.5438,-0.7466 -0.9667,-1.5742 -1.2523,-2.4518c-0.2856,-0.8776 -0.431,-1.7948 -0.431,-2.7173c0,-0.9225 0.1454,-1.8397 0.431,-2.7173c0.2856,-0.8776 0.7085,-1.7052 1.2523,-2.4518c0.5438,-0.7466 1.2013,-1.4026 1.9495,-1.9452c0.7482,-0.5426 1.5776,-0.9647 2.4572,-1.2496c0.8796,-0.2849 1.7988,-0.43 2.7233,-0.43c0.9245,0 1.8437,0.1451 2.7233,0.43c0.8796,0.2849 1.709,0.707 2.4572,1.2496c0.7482,0.5426 1.4057,1.1986 1.9495,1.9452c0.5438,0.7466 0.9667,1.5742 1.2523,2.4518c0.2856,0.8776 0.431,1.7948 0.431,2.7173z" fill="none" stroke="rgb(76, 83, 240)" stroke-width="10.0788" stroke-linecap="butt" stroke-linejoin="butt" stroke-dasharray="0 0" stroke-opacity="1" clip-path="url(#lg3g5smr0ul9pgp1m0sp)"></path></g></g></g></g><g transform="matrix(1,0,0,1,48,1)"><g id="64139058" opacity="1" style="mix-blend-mode:normal"><g><g><path id="64139058_fill_path" d="M17.6266,8.7939c0,0.9225 -0.1454,1.8397 -0.431,2.7173c-0.2856,0.8776 -0.7085,1.7052 -1.2523,2.4518c-0.5438,0.7466 -1.2013,1.4026 -1.9495,1.9452c-0.7482,0.5426 -1.5776,0.9647 -2.4572,1.2496c-0.8796,0.2849 -1.7988,0.43 -2.7233,0.43c-0.9245,0 -1.8437,-0.1451 -2.7233,-0.43c-0.8796,-0.2849 -1.709,-0.707 -2.4572,-1.2496c-0.7482,-0.5426 -1.4057,-1.1986 -1.9495,-1.9452c-0.5438,-0.7466 -0.9667,-1.5742 -1.2523,-2.4518c-0.2856,-0.8776 -0.431,-1.7948 -0.431,-2.7173c0,-0.9225 0.1454,-1.8397 0.431,-2.7173c0.2856,-0.8776 0.7085,-1.7052 1.2523,-2.4518c0.5438,-0.7466 1.2013,-1.4026 1.9495,-1.9452c0.7482,-0.5426 1.5776,-0.9647 2.4572,-1.2496c0.8796,-0.2849 1.7988,-0.43 2.7233,-0.43c0.9245,0 1.8437,0.1451 2.7233,0.43c0.8796,0.2849 1.709,0.707 2.4572,1.2496c0.7482,0.5426 1.4057,1.1986 1.9495,1.9452c0.5438,0.7466 0.9667,1.5742 1.2523,2.4518c0.2856,0.8776 0.431,1.7948 0.431,2.7173z" fill-rule="nonzero" fill="rgb(255, 255, 255)" fill-opacity="1" style="mix-blend-mode:NORMAL"></path><defs><clipPath id="lg3g5smr4i0u22kzp7v" clipPathUnits="userSpaceOnUse"><path d="M17.6266,8.7939c0,0.9225 -0.1454,1.8397 -0.431,2.7173c-0.2856,0.8776 -0.7085,1.7052 -1.2523,2.4518c-0.5438,0.7466 -1.2013,1.4026 -1.9495,1.9452c-0.7482,0.5426 -1.5776,0.9647 -2.4572,1.2496c-0.8796,0.2849 -1.7988,0.43 -2.7233,0.43c-0.9245,0 -1.8437,-0.1451 -2.7233,-0.43c-0.8796,-0.2849 -1.709,-0.707 -2.4572,-1.2496c-0.7482,-0.5426 -1.4057,-1.1986 -1.9495,-1.9452c-0.5438,-0.7466 -0.9667,-1.5742 -1.2523,-2.4518c-0.2856,-0.8776 -0.431,-1.7948 -0.431,-2.7173c0,-0.9225 0.1454,-1.8397 0.431,-2.7173c0.2856,-0.8776 0.7085,-1.7052 1.2523,-2.4518c0.5438,-0.7466 1.2013,-1.4026 1.9495,-1.9452c0.7482,-0.5426 1.5776,-0.9647 2.4572,-1.2496c0.8796,-0.2849 1.7988,-0.43 2.7233,-0.43c0.9245,0 1.8437,0.1451 2.7233,0.43c0.8796,0.2849 1.709,0.707 2.4572,1.2496c0.7482,0.5426 1.4057,1.1986 1.9495,1.9452c0.5438,0.7466 0.9667,1.5742 1.2523,2.4518c0.2856,0.8776 0.431,1.7948 0.431,2.7173z"></path></clipPath></defs><path id="64139058_stroke_path" d="M17.6266,8.7939c0,0.9225 -0.1454,1.8397 -0.431,2.7173c-0.2856,0.8776 -0.7085,1.7052 -1.2523,2.4518c-0.5438,0.7466 -1.2013,1.4026 -1.9495,1.9452c-0.7482,0.5426 -1.5776,0.9647 -2.4572,1.2496c-0.8796,0.2849 -1.7988,0.43 -2.7233,0.43c-0.9245,0 -1.8437,-0.1451 -2.7233,-0.43c-0.8796,-0.2849 -1.709,-0.707 -2.4572,-1.2496c-0.7482,-0.5426 -1.4057,-1.1986 -1.9495,-1.9452c-0.5438,-0.7466 -0.9667,-1.5742 -1.2523,-2.4518c-0.2856,-0.8776 -0.431,-1.7948 -0.431,-2.7173c0,-0.9225 0.1454,-1.8397 0.431,-2.7173c0.2856,-0.8776 0.7085,-1.7052 1.2523,-2.4518c0.5438,-0.7466 1.2013,-1.4026 1.9495,-1.9452c0.7482,-0.5426 1.5776,-0.9647 2.4572,-1.2496c0.8796,-0.2849 1.7988,-0.43 2.7233,-0.43c0.9245,0 1.8437,0.1451 2.7233,0.43c0.8796,0.2849 1.709,0.707 2.4572,1.2496c0.7482,0.5426 1.4057,1.1986 1.9495,1.9452c0.5438,0.7466 0.9667,1.5742 1.2523,2.4518c0.2856,0.8776 0.431,1.7948 0.431,2.7173z" fill="none" stroke="rgb(76, 83, 240)" stroke-width="10.0788" stroke-linecap="butt" stroke-linejoin="butt" stroke-dasharray="0 0" stroke-opacity="1" clip-path="url(#lg3g5smr4i0u22kzp7v)"></path></g></g></g></g></g></g></g></g></g></g></g></g><animateTransform href="#64143572" attributeName="transform" type="rotate" values="0 54 62;60 54 62;60 54 62;120 54 62;120 54 62" dur="2s" repeatCount="indefinite" calcMode="spline" keyTimes="0;0.25;0.5;0.75;1" keySplines="0.5 0.35 0.15 1;0.5 0.35 0.15 1;0.5 0.35 0.15 1;0.5 0.35 0.15 1" additive="sum" fill="freeze"></animateTransform><animateTransform href="#64139054" attributeName="transform" type="translate" values="0 0;0 -55.558800000000005;0 -55.558800000000005;46 -82.5588;46 -82.5588" dur="2s" repeatCount="indefinite" calcMode="spline" keyTimes="0;0.25;0.5;0.75;1" keySplines="0.5 0.35 0.15 1;0.5 0.35 0.15 1;0.5 0.35 0.15 1;0.5 0.35 0.15 1" additive="sum" fill="freeze"></animateTransform><animateTransform href="#64139055" attributeName="transform" type="translate" values="0 0;-45 25.001199999999997;-45 25.001199999999997;-92 0.0011999999999972033;-92 0.0011999999999972033" dur="2s" repeatCount="indefinite" calcMode="spline" keyTimes="0;0.25;0.5;0.75;1" keySplines="0.5 0.35 0.15 1;0.5 0.35 0.15 1;0.5 0.35 0.15 1;0.5 0.35 0.15 1" additive="sum" fill="freeze"></animateTransform><animateTransform href="#64139058" attributeName="transform" type="translate" values="0 0;44 27;44 27;44 82.56;44 82.56" dur="2s" repeatCount="indefinite" calcMode="spline" keyTimes="0;0.25;0.5;0.75;1" keySplines="0.5 0.35 0.15 1;0.5 0.35 0.15 1;0.5 0.35 0.15 1;0.5 0.35 0.15 1" additive="sum" fill="freeze"></animateTransform></svg>