<svg width="10" height="10" viewBox="0 0 10 10" fill="none" xmlns="http://www.w3.org/2000/svg">
<path fill-rule="evenodd" clip-rule="evenodd" d="M8.59992 9.77727C8.89325 10.0741 9.36883 10.0741 9.66216 9.77727C9.95549 9.48044 9.95549 8.9992 9.66216 8.70237L6.06226 5.05958L9.78 1.29754C10.0733 1.00072 10.0733 0.519473 9.78 0.222649C9.48667 -0.0741743 9.01109 -0.0741743 8.71776 0.222649L5.00002 3.98469L1.28223 0.222617C0.988905 -0.0742059 0.513324 -0.0742061 0.219997 0.222619C-0.0733324 0.519442 -0.073332 1.00069 0.219997 1.29751L3.93778 5.05958L0.337764 8.70249C0.044435 8.99931 0.0444347 9.48056 0.337764 9.77738C0.631093 10.0742 1.10667 10.0742 1.4 9.77738L5.00002 6.13448L8.59992 9.77727Z" fill="#9A98BC"/>
</svg>
