<svg width="20" height="20" viewBox="0 0 20 20" fill="none" xmlns="http://www.w3.org/2000/svg">
    <path fill-rule="evenodd" clip-rule="evenodd" d="M9.40048 0.852646C11.6196 0.707195 13.816 1.37345 15.5803 2.72728C17.3447 4.08111 18.5567 6.03018 18.9905 8.21136C19.4244 10.3925 19.0505 12.6571 17.9386 14.583L16.4952 13.7497C17.405 12.1739 17.7109 10.3211 17.3559 8.53651C17.0009 6.75191 16.0093 5.15721 14.5657 4.04954C13.1222 2.94186 11.3252 2.39674 9.50949 2.51574C7.69382 2.63475 5.98333 3.40976 4.69671 4.69638L3.5182 3.51787C5.09074 1.94533 7.18133 0.998096 9.40048 0.852646ZM1.00948 11.788C1.44335 13.9692 2.65536 15.9183 4.4197 17.2721C6.18405 18.6259 8.3804 19.2922 10.5995 19.1467C12.8187 19.0013 14.9093 18.054 16.4818 16.4815L15.3033 15.303C14.0167 16.5896 12.3062 17.3646 10.4905 17.4836C8.67487 17.6026 6.87786 17.0575 5.4343 15.9498C3.99075 14.8422 2.9991 13.2475 2.64413 11.4629C2.28915 9.67826 2.59504 7.82547 3.50482 6.24968L2.06145 5.41635C0.949495 7.34231 0.57562 9.60683 1.00948 11.788ZM10 12.4997C11.3807 12.4997 12.5 11.3804 12.5 9.99966C12.5 8.61895 11.3807 7.49966 10 7.49966C8.61929 7.49966 7.50001 8.61895 7.50001 9.99966C7.50001 11.3804 8.61929 12.4997 10 12.4997Z" fill="#0D0D29"/>
</svg>
