<svg width="14" height="14" viewBox="0 0 14 14" fill="none" xmlns="http://www.w3.org/2000/svg">
<path fill-rule="evenodd" clip-rule="evenodd" d="M7.00004 1.66659C4.05452 1.66659 1.66671 4.0544 1.66671 6.99992C1.66671 9.94544 4.05452 12.3333 7.00004 12.3333C9.94556 12.3333 12.3334 9.94544 12.3334 6.99992C12.3334 4.0544 9.94556 1.66659 7.00004 1.66659ZM0.333374 6.99992C0.333374 3.31802 3.31814 0.333252 7.00004 0.333252C10.6819 0.333252 13.6667 3.31802 13.6667 6.99992C13.6667 10.6818 10.6819 13.6666 7.00004 13.6666C3.31814 13.6666 0.333374 10.6818 0.333374 6.99992ZM7.66671 6.33325V10.3333H6.33337V6.33325H7.66671ZM7.66671 4.99992V3.66659H6.33337V4.99992H7.66671Z" fill="#4C53F0"/>
</svg>
