<svg width="18" height="18" viewBox="0 0 18 18" fill="none" xmlns="http://www.w3.org/2000/svg">
<path d="M3.55198 2.69381C5.0128 1.43069 6.91709 0.666626 8.99984 0.666626C13.6022 0.666626 17.3332 4.39758 17.3332 8.99996C17.3332 10.78 16.775 12.4298 15.8242 13.7838L13.1665 8.99996H15.6665C15.6665 5.31806 12.6818 2.33329 8.99984 2.33329C7.20802 2.33329 5.58131 3.04018 4.38336 4.19031L3.55198 2.69381ZM14.4477 15.3061C12.9868 16.5692 11.0826 17.3333 8.99984 17.3333C4.39746 17.3333 0.666504 13.6023 0.666504 8.99996C0.666504 7.21984 1.22466 5.57009 2.1755 4.21616L4.83317 8.99996H2.33317C2.33317 12.6819 5.31794 15.6666 8.99984 15.6666C10.7917 15.6666 12.4183 14.9597 13.6163 13.8096L14.4477 15.3061Z" fill="#A18400"/>
</svg>
