<svg width="20" height="18" viewBox="0 0 20 18" fill="none" xmlns="http://www.w3.org/2000/svg">
<path d="M10.8335 9.83329V14.4875L12.3572 12.9645L13.5357 14.143L10.0002 17.6785L6.46463 14.143L7.64314 12.9645L9.16683 14.4875V9.83329H10.8335ZM10.0002 0.666626C12.9947 0.666626 15.4622 2.92297 15.7952 5.82825C17.7383 6.35958 19.1668 8.13796 19.1668 10.25C19.1668 12.6406 17.3365 14.6038 15.0007 14.8146L15.0009 13.137C16.414 12.9345 17.5002 11.719 17.5002 10.25C17.5002 8.63913 16.1943 7.33329 14.5835 7.33329C14.4095 7.33329 14.2391 7.34854 14.0741 7.37829C14.1348 7.09513 14.1668 6.80128 14.1668 6.49996C14.1668 4.19878 12.3013 2.33329 10.0002 2.33329C7.69898 2.33329 5.8335 4.19878 5.8335 6.49996C5.8335 6.80128 5.86548 7.09513 5.92687 7.37771C5.76125 7.34854 5.59082 7.33329 5.41683 7.33329C3.806 7.33329 2.50016 8.63913 2.50016 10.25C2.50016 11.6669 3.5105 12.8478 4.85005 13.1116L5.0002 13.1371L5.00049 14.8146C2.6643 14.6043 0.833496 12.641 0.833496 10.25C0.833496 8.13796 2.26203 6.35958 4.20556 5.82838C4.53817 2.92297 7.00567 0.666626 10.0002 0.666626Z" fill="currentColor"/>
</svg>
