<svg width="13" height="18" viewBox="0 0 13 18" fill="none" xmlns="http://www.w3.org/2000/svg">
<path fill-rule="evenodd" clip-rule="evenodd" d="M7.00001 0.666748C6.53977 0.666748 6.16668 1.03984 6.16668 1.50008C6.16668 1.96032 6.53977 2.33341 7.00001 2.33341H11.1667V15.6667H7.00001C6.53977 15.6667 6.16668 16.0398 6.16668 16.5001C6.16668 16.9603 6.53977 17.3334 7.00001 17.3334H12C12.4602 17.3334 12.8333 16.9603 12.8333 16.5001V1.50008C12.8333 1.03984 12.4602 0.666748 12 0.666748H7.00001ZM5.33334 8.16675C4.87311 8.16675 4.50001 8.53984 4.50001 9.00008C4.50001 9.46032 4.87311 9.83342 5.33334 9.83342H8.66668C9.12691 9.83342 9.50001 9.46032 9.50001 9.00008C9.50001 8.53984 9.12691 8.16675 8.66668 8.16675H5.33334ZM5.08927 5.07749C5.4147 5.40293 5.4147 5.93057 5.08927 6.256L2.34519 9.00008L5.08927 11.7442C5.4147 12.0696 5.4147 12.5972 5.08927 12.9227C4.76383 13.2481 4.23619 13.2481 3.91075 12.9227L0.577808 9.58972C0.577679 9.5896 0.57755 9.58947 0.577421 9.58934C0.374023 9.38594 0.297749 9.10356 0.348598 8.84092C0.379108 8.68334 0.455382 8.53287 0.577421 8.41083L3.91075 5.07749C4.23619 4.75206 4.76383 4.75206 5.08927 5.07749Z" fill="currentColor"/>
</svg>
