<svg viewBox="0 0 20 20" fill="none" xmlns="http://www.w3.org/2000/svg"><path fill-rule="evenodd" clip-rule="evenodd" d="M9.4107 3.2323a.8333.8333 0 0 1 1.1785 0l1.1786 1.1785a.8334.8334 0 0 1 0 1.1785l-1.1786 1.1785a.8333.8333 0 0 1-1.1785 0L8.2322 5.5893a.8333.8333 0 0 1 0-1.1785l1.1785-1.1785Zm2.357 6.1785a.8334.8334 0 0 1 0 1.1785l-1.1785 1.1785a.8334.8334 0 0 1-1.1785 0l-1.1785-1.1785a.8334.8334 0 0 1 0-1.1785l1.1785-1.1785a.8333.8333 0 0 1 1.1785 0l1.1785 1.1785Zm-1.1785 3.8215a.8333.8333 0 0 0-1.1785 0l-1.1785 1.1785a.8333.8333 0 0 0 0 1.1785l1.1785 1.1785a.8332.8332 0 0 0 1.1785 0l1.1786-1.1785a.8334.8334 0 0 0 0-1.1785l-1.1786-1.1785Z" fill="currentColor"/></svg>