<svg id="64139016" viewBox="0 0 128 128" xmlns="http://www.w3.org/2000/svg" xmlns:xlink="http://www.w3.org/1999/xlink"><g transform="matrix(1,0,0,1,0,0)"><g id="64139016" opacity="1" style="mix-blend-mode:normal"><g><defs><clipPath id="64139016_clipPath" x="-50%" y="-50%" width="200%" height="200%"><path d="M4,128c-2.20914,0 -4,-1.79086 -4,-4v-120c0,-2.20914 1.79086,-4 4,-4h120c2.20914,0 4,1.79086 4,4v120c0,2.20914 -1.79086,4 -4,4z" fill="white" clip-rule="nonzero"></path></clipPath></defs><g clip-path="url(#64139016_clipPath)"><g transform="matrix(1,0,0,1,0,0)"><g id="70456173" opacity="1" style="mix-blend-mode:normal"><g><g><g transform="matrix(6.123233995736766e-17,-1,1,6.123233995736766e-17,-7.105427357601002e-15,128)"><g id="70456174" opacity="1" style="mix-blend-mode:normal"><g><g><defs><clipPath id="lg3gas4bxi98c4ahdae" clipPathUnits="userSpaceOnUse"><path d="M128,64c0,6.7136 -1.056,13.3888 -3.1296,19.776c-2.0736,6.3872 -5.1456,12.4096 -9.0944,17.8432c-3.9488,5.4336 -8.7232,10.208 -14.1568,14.1568c-5.4336,3.9488 -11.456,7.0208 -17.8432,9.0944c-6.3872,2.0736 -13.0624,3.1296 -19.776,3.1296c-6.7136,0 -13.3888,-1.056 -19.776,-3.1296c-6.3872,-2.0736 -12.4096,-5.1456 -17.8432,-9.0944c-5.4336,-3.9488 -10.208,-8.7232 -14.1568,-14.1568c-3.9488,-5.4336 -7.0208,-11.456 -9.0944,-17.8432c-2.0736,-6.3872 -3.1296,-13.0624 -3.1296,-19.776c0,-6.7136 1.056,-13.3888 3.1296,-19.776c2.0736,-6.3872 5.1456,-12.4096 9.0944,-17.8432c3.9488,-5.4336 8.7232,-10.208 14.1568,-14.1568c5.4336,-3.9488 11.456,-7.0208 17.8432,-9.0944c6.3872,-2.0736 13.0624,-3.1296 19.776,-3.1296c6.7136,0 13.3888,1.056 19.776,3.1296c6.3872,2.0736 12.4096,5.1456 17.8432,9.0944c5.4336,3.9488 10.208,8.7232 14.1568,14.1568c3.9488,5.4336 7.0208,11.456 9.0944,17.8432c2.0736,6.3872 3.1296,13.0624 3.1296,19.776z"></path></clipPath></defs><path id="70456174_stroke_path" d="M128,64c0,6.7136 -1.056,13.3888 -3.1296,19.776v0c-2.0736,6.3872 -5.1456,12.4096 -9.0944,17.8432v0c-3.9488,5.4336 -8.7232,10.208 -14.1568,14.1568v0c-5.4336,3.9488 -11.456,7.0208 -17.8432,9.0944v0c-6.3872,2.0736 -13.0624,3.1296 -19.776,3.1296v0c-6.7136,0 -13.3888,-1.056 -19.776,-3.1296v0c-6.3872,-2.0736 -12.4096,-5.1456 -17.8432,-9.0944v0c-5.4336,-3.9488 -10.208,-8.7232 -14.1568,-14.1568v0c-3.9488,-5.4336 -7.0208,-11.456 -9.0944,-17.8432v0c-2.0736,-6.3872 -3.1296,-13.0624 -3.1296,-19.776v0c0,-6.7136 1.056,-13.3888 3.1296,-19.776v0c2.0736,-6.3872 5.1456,-12.4096 9.0944,-17.8432v0c3.9488,-5.4336 8.7232,-10.208 14.1568,-14.1568v0c5.4336,-3.9488 11.456,-7.0208 17.8432,-9.0944v0c6.3872,-2.0736 13.0624,-3.1296 19.776,-3.1296" fill="none" stroke="rgb(76, 83, 240)" stroke-width="10" stroke-linecap="butt" stroke-linejoin="butt" stroke-dasharray="0 0" stroke-opacity="1" clip-path="url(#lg3gas4bxi98c4ahdae)"></path></g></g></g></g><g transform="matrix(1,0,0,1,26.8387,29.4846)"><g id="70456175" opacity="1" style="mix-blend-mode:normal"><g><defs><clipPath id="70456175_clipPath" x="-50%" y="-50%" width="200%" height="200%"><path d="M0,68.9119v-68.9119h74.3226v68.9119z" fill="white" clip-rule="nonzero"></path></clipPath></defs><g clip-path="url(#70456175_clipPath)"><g transform="matrix(1,0,0,1,41.6112,0.0731)"><g id="70456176" opacity="1" style="mix-blend-mode:normal"><g><g><path id="70456176_fill_path" d="M28.94428,0l-28.94428,21.49637l5.3536,-12.68298z" fill-rule="nonzero" fill="rgb(122, 128, 255)" fill-opacity="1" style="mix-blend-mode:NORMAL"></path></g></g></g></g><g transform="matrix(1,0,0,1,3.7379,0.0731)"><g id="70456177" opacity="1" style="mix-blend-mode:normal"><g><g><path id="70456177_fill_path" d="M0,0l28.71158,21.6998l-5.09163,-12.88641z" fill-rule="nonzero" fill="rgb(122, 128, 255)" fill-opacity="1" style="mix-blend-mode:NORMAL"></path></g></g></g></g><g transform="matrix(1,0,0,1,52.4325,49.9021)"><g id="70456178" opacity="1" style="mix-blend-mode:normal"><g><g><path id="70456178_fill_path" d="M7.70842,0l-7.70842,11.81071l16.49401,4.53695l4.74184,-16.08569z" fill-rule="nonzero" fill="rgb(123, 129, 255)" fill-opacity="1" style="mix-blend-mode:NORMAL"></path></g></g></g></g><g transform="matrix(1,0,0,1,0.6835,49.9021)"><g id="70456179" opacity="1" style="mix-blend-mode:normal"><g><g><path id="70456179_fill_path" d="M0,0.26197l4.71257,16.08569l16.49401,-4.53695l-7.70843,-11.81071z" fill-rule="nonzero" fill="rgb(123, 129, 255)" fill-opacity="1" style="mix-blend-mode:NORMAL"></path></g></g></g></g><g transform="matrix(1,0,0,1,16.3623,20.0284)"><g id="70456180" opacity="1" style="mix-blend-mode:normal"><g><g><path id="70456180_fill_path" d="M4.59696,9.91836l-4.59696,6.95325l16.37693,0.72738l-0.58102,-17.59899z" fill-rule="nonzero" fill="rgb(123, 129, 255)" fill-opacity="1" style="mix-blend-mode:NORMAL"></path></g></g></g></g><g transform="matrix(1,0,0,1,41.6112,19.825)"><g id="70456181" opacity="1" style="mix-blend-mode:normal"><g><g><path id="70456181_fill_path" d="M11.7229,10.12179l-11.34384,-10.12179l-0.37905,17.80242l16.34912,-0.72738z" fill-rule="nonzero" fill="rgb(123, 129, 255)" fill-opacity="1" style="mix-blend-mode:NORMAL"></path></g></g></g></g><g transform="matrix(1,0,0,1,21.8901,50.2796)"><g id="70456182" opacity="1" style="mix-blend-mode:normal"><g><g><path id="70456182_fill_path" d="M0,11.43312l9.83201,-4.80039l-8.49434,-6.63273z" fill-rule="nonzero" fill="rgb(123, 129, 255)" fill-opacity="1" style="mix-blend-mode:NORMAL"></path></g></g></g></g><g transform="matrix(1,0,0,1,42.5712,50.2796)"><g id="70456183" opacity="1" style="mix-blend-mode:normal"><g><g><path id="70456183_fill_path" d="M0,6.63273l9.86128,4.80039l-1.36694,-11.43312z" fill-rule="nonzero" fill="rgb(123, 129, 255)" fill-opacity="1" style="mix-blend-mode:NORMAL"></path></g></g></g></g><g transform="matrix(1,0,0,1,42.5712,56.9124)"><g id="70456184" opacity="1" style="mix-blend-mode:normal"><g><g><path id="70456184_fill_path" d="M9.86128,4.80039l-9.86128,-4.80039l0.78592,6.4293l-0.08781,2.70461z" fill-rule="nonzero" fill="rgb(189, 192, 255)" fill-opacity="1" style="mix-blend-mode:NORMAL"></path></g></g></g></g><g transform="matrix(1,0,0,1,21.8901,56.9124)"><g id="70456185" opacity="1" style="mix-blend-mode:normal"><g><g><path id="70456185_fill_path" d="M0,4.80039l9.16317,4.33352l-0.05854,-2.70461l0.72738,-6.4293z" fill-rule="nonzero" fill="rgb(189, 192, 255)" fill-opacity="1" style="mix-blend-mode:NORMAL"></path></g></g></g></g><g transform="matrix(1,0,0,1,22.995,40.9716)"><g id="70456186" opacity="1" style="mix-blend-mode:normal"><g><g><path id="70456186_fill_path" d="M8.2031,5.06236l-8.2031,-2.41483l5.78827,-2.64753z" fill-rule="nonzero" fill="rgb(27, 34, 191)" fill-opacity="1" style="mix-blend-mode:NORMAL"></path></g></g></g></g><g transform="matrix(1,0,0,1,43.0952,40.9716)"><g id="70456187" opacity="1" style="mix-blend-mode:normal"><g><g><path id="70456187_fill_path" d="M0,5.06236l2.41483,-5.06236l5.81754,2.64753z" fill-rule="nonzero" fill="rgb(27, 34, 191)" fill-opacity="1" style="mix-blend-mode:NORMAL"></path></g></g></g></g><g transform="matrix(1,0,0,1,14.1816,49.9021)"><g id="70456188" opacity="1" style="mix-blend-mode:normal"><g><g><path id="70456188_fill_path" d="M7.70843,11.81071l1.39621,-11.81071l-9.10464,0.26197z" fill-rule="nonzero" fill="rgb(100, 107, 255)" fill-opacity="1" style="mix-blend-mode:NORMAL"></path></g></g></g></g><g transform="matrix(1,0,0,1,51.0363,49.9021)"><g id="70456189" opacity="1" style="mix-blend-mode:normal"><g><g><path id="70456189_fill_path" d="M0,0l1.39621,11.81071l7.70842,-11.54874z" fill-rule="nonzero" fill="rgb(100, 107, 255)" fill-opacity="1" style="mix-blend-mode:NORMAL"></path></g></g></g></g><g transform="matrix(1,0,0,1,41.6112,36.9)"><g id="70456190" opacity="1" style="mix-blend-mode:normal"><g><g><path id="70456190_fill_path" d="M16.34912,0l-16.34912,0.72738l1.51329,8.40653l2.41483,-5.06236l5.81754,2.64753z" fill-rule="nonzero" fill="rgb(100, 107, 255)" fill-opacity="1" style="mix-blend-mode:NORMAL"></path></g></g></g></g><g transform="matrix(1,0,0,1,16.3623,36.9)"><g id="70456191" opacity="1" style="mix-blend-mode:normal"><g><g><path id="70456191_fill_path" d="M6.63273,6.71908l5.81754,-2.64753l2.38556,5.06236l1.5411,-8.40653l-16.37693,-0.72738z" fill-rule="nonzero" fill="rgb(100, 107, 255)" fill-opacity="1" style="mix-blend-mode:NORMAL"></path></g></g></g></g><g transform="matrix(1,0,0,1,16.3623,36.9)"><g id="70456192" opacity="1" style="mix-blend-mode:normal"><g><g><path id="70456192_fill_path" d="M0,0l6.86543,13.37961l-0.2327,-6.66053z" fill-rule="nonzero" fill="rgb(123, 129, 255)" fill-opacity="1" style="mix-blend-mode:NORMAL"></path></g></g></g></g><g transform="matrix(1,0,0,1,51.0656,36.9)"><g id="70456193" opacity="1" style="mix-blend-mode:normal"><g><g><path id="70456193_fill_path" d="M0.29124,6.71908l-0.29124,6.66053l6.8947,-13.37961z" fill-rule="nonzero" fill="rgb(123, 129, 255)" fill-opacity="1" style="mix-blend-mode:NORMAL"></path></g></g></g></g><g transform="matrix(1,0,0,1,31.1981,37.6274)"><g id="70456194" opacity="1" style="mix-blend-mode:normal"><g><g><path id="70456194_fill_path" d="M1.5411,0l-1.5411,8.40653l1.92015,9.91836l0.43613,-13.06057z" fill-rule="nonzero" fill="rgb(123, 129, 255)" fill-opacity="1" style="mix-blend-mode:NORMAL"></path></g></g></g></g><g transform="matrix(1,0,0,1,40.8267,37.6274)"><g id="70456195" opacity="1" style="mix-blend-mode:normal"><g><g><path id="70456195_fill_path" d="M0.78446,0l-0.78446,5.23506l0.34832,13.08984l1.94943,-9.91836z" fill-rule="nonzero" fill="rgb(123, 129, 255)" fill-opacity="1" style="mix-blend-mode:NORMAL"></path></g></g></g></g><g transform="matrix(1,0,0,1,41.175,43.6191)"><g id="70456196" opacity="1" style="mix-blend-mode:normal"><g><g><path id="70456196_fill_path" d="M1.94943,2.41483l-1.94943,9.91836l1.39621,0.96008l8.49434,-6.63273l0.29124,-6.66054z" fill-rule="nonzero" fill="rgb(140, 145, 255)" fill-opacity="1" style="mix-blend-mode:NORMAL"></path></g></g></g></g><g transform="matrix(1,0,0,1,22.995,43.6191)"><g id="70456197" opacity="1" style="mix-blend-mode:normal"><g><g><path id="70456197_fill_path" d="M0,0l0.2327,6.66054l8.49434,6.63273l1.39621,-0.96008l-1.92015,-9.91836z" fill-rule="nonzero" fill="rgb(140, 145, 255)" fill-opacity="1" style="mix-blend-mode:NORMAL"></path></g></g></g></g><g transform="matrix(1,0,0,1,21.8901,61.7128)"><g id="70456198" opacity="1" style="mix-blend-mode:normal"><g><g><path id="70456198_fill_path" d="M21.37928,4.33352l0.08781,-2.70461l-0.72738,-0.64102h-10.96625l-0.66884,0.64102l0.05854,2.70461l-9.16318,-4.33352l3.19928,2.61679l6.48638,4.50915h11.14187l6.51565,-4.50915l3.19928,-2.61679z" fill-rule="nonzero" fill="rgb(165, 169, 255)" fill-opacity="1" style="mix-blend-mode:NORMAL"></path></g></g></g></g><g transform="matrix(1,0,0,1,30.9947,55.9523)"><g id="70456199" opacity="1" style="mix-blend-mode:normal"><g><g><path id="70456199_fill_path" d="M11.57654,0.96008l-1.39621,-0.96008h-8.05675l-1.39621,0.96008l-0.72738,6.4293l0.66884,-0.64102h10.96625l0.72738,0.64102z" fill-rule="nonzero" fill="rgb(0, 7, 163)" fill-opacity="1" style="mix-blend-mode:NORMAL"></path></g></g></g></g><g transform="matrix(1,0,0,1,42.5712,0.0731)"><g id="70456200" opacity="1" style="mix-blend-mode:normal"><g><g><path id="70456200_fill_path" d="M29.20626,22.89258l2.4719,-11.86779l-3.69395,-11.02479l-27.9842,20.769l10.76282,9.10464l15.21342,4.4506l3.37491,-3.92666l-1.45475,-1.04643l2.32702,-2.12359l-1.80307,-1.39621l2.32702,-1.77527z" fill-rule="nonzero" fill="rgb(52, 59, 216)" fill-opacity="1" style="mix-blend-mode:NORMAL"></path></g></g></g></g><g transform="matrix(1,0,0,1,0.0732,0.0731)"><g id="70456201" opacity="1" style="mix-blend-mode:normal"><g><g><path id="70456201_fill_path" d="M0,11.02479l2.47191,11.86779l-1.57037,1.16351l2.32702,1.77527l-1.7738,1.39621l2.32702,2.12359l-1.45475,1.04643l3.34564,3.92666l15.21342,-4.4506l10.76282,-9.10464l-27.9842,-20.769z" fill-rule="nonzero" fill="rgb(52, 59, 216)" fill-opacity="1" style="mix-blend-mode:NORMAL"></path></g></g></g></g><g transform="matrix(1,0,0,1,51.0656,29.9468)"><g id="70456202" opacity="1" style="mix-blend-mode:normal"><g><g><path id="70456202_fill_path" d="M17.48189,4.4506l-15.21342,-4.4506l4.62622,6.95325l-6.8947,13.37961l9.07536,-0.11562h13.52743z" fill-rule="nonzero" fill="rgb(140, 145, 255)" fill-opacity="1" style="mix-blend-mode:NORMAL"></path></g></g></g></g><g transform="matrix(1,0,0,1,0.6835,29.9468)"><g id="70456203" opacity="1" style="mix-blend-mode:normal"><g><g><path id="70456203_fill_path" d="M20.27578,0l-15.21342,4.4506l-5.06236,15.76664h13.49816l9.0461,0.11562l-6.86543,-13.37961z" fill-rule="nonzero" fill="rgb(140, 145, 255)" fill-opacity="1" style="mix-blend-mode:NORMAL"></path></g></g></g></g><g transform="matrix(1,0,0,1,27.3578,8.8865)"><g id="70456204" opacity="1" style="mix-blend-mode:normal"><g><g><path id="70456204_fill_path" d="M14.25334,28.74086l0.96008,-16.78526l4.4228,-11.9556h-19.63622l4.36425,11.9556l1.01715,16.78526l0.34978,5.2936l0.02927,13.0313h8.05675l0.05854,-13.0313z" fill-rule="nonzero" fill="rgb(140, 145, 255)" fill-opacity="1" style="mix-blend-mode:NORMAL"></path></g></g></g></g></g></g></g></g></g></g></g></g></g></g></g></g><animateTransform href="#70456174" attributeName="transform" type="rotate" values="0 64 64;720 64 64" dur="2s" repeatCount="indefinite" calcMode="spline" keyTimes="0;1" keySplines="0 0 1 1" additive="sum" fill="freeze"></animateTransform></svg>