<svg viewBox="0 0 20 20" fill="none" xmlns="http://www.w3.org/2000/svg"><path fill-rule="evenodd" clip-rule="evenodd" d="M12.5 1.6667a.8333.8333 0 0 0-.8333.8334v5c0 .4602.3731.8333.8333.8333h5a.8333.8333 0 0 0 .8333-.8333v-5a.8333.8333 0 0 0-.8333-.8334h-5Zm.8333 1.6667h3.3334v3.3334h-3.3334V3.3334ZM2.5 10.8334a.8333.8333 0 0 0-.8333.8333v5.8334c0 .4602.373.8333.8333.8333h5.8333a.8333.8333 0 0 0 .8334-.8333v-5.8334a.8333.8333 0 0 0-.8334-.8333H2.5Zm.8333 5.8333v-4.1666H7.5v4.1666H3.3333Zm1.25-11.6666a.8333.8333 0 0 1 .8334-.8333h3.75a.8333.8333 0 1 1 0 1.6666H6.25v2.5a.8333.8333 0 0 1-1.6667 0V5.0001ZM15 15.4167a.8333.8333 0 0 0 .8333-.8333v-3.75a.8333.8333 0 0 0-1.6666 0v2.9167h-2.5a.8333.8333 0 1 0 0 1.6666H15Z" fill="currentColor"/></svg>