<svg viewBox="0 0 20 20" fill="none" xmlns="http://www.w3.org/2000/svg"><path fill-rule="evenodd" clip-rule="evenodd" d="M1.6667 2.5A.8333.8333 0 0 1 2.5 1.6668h11.6667c.4602 0 .8333.3731.8333.8334v10.8333h2.5a.8333.8333 0 0 1 .8333.8333v1.6667c0 1.3807-1.1193 2.5-2.5 2.5H2.5a.8333.8333 0 0 1-.8333-.8333v-15Zm11.6666.8334v13.3333h-10V3.3334h10Zm3.3334 11.6667H15v1.6666h.8333a.8333.8333 0 0 0 .8334-.8333v-.8333ZM5.8333 6.6668a.8333.8333 0 1 0 0 1.6666h5a.8334.8334 0 1 0 0-1.6666h-5ZM5 10c0-.4603.373-.8333.8333-.8333h3.3334a.8333.8333 0 1 1 0 1.6666H5.8333A.8333.8333 0 0 1 5 10.0001Zm.8333 1.6666a.8333.8333 0 0 0 0 1.6667h.8334a.8333.8333 0 1 0 0-1.6667h-.8334Z" fill="currentColor"/></svg>