<svg viewBox="0 0 20 20" fill="none" xmlns="http://www.w3.org/2000/svg"><path fill-rule="evenodd" clip-rule="evenodd" d="M2.5 1.6667a.8333.8333 0 0 0-.8333.8334v15c0 .4602.373.8333.8333.8333h11.6667A.8333.8333 0 0 0 15 17.5001v-2.5a.8333.8333 0 1 0-1.6667 0v1.6666h-10V3.3334h10v3.3334a.8333.8333 0 0 0 1.6667 0V2.5a.8333.8333 0 0 0-.8333-.8334H2.5Zm9.4962 12.5 6.3371-6.3371-1.1628-1.1628-6.3372 6.3371v1.1628h1.1629ZM5 8.3334c0-.4602.373-.8333.8333-.8333h5a.8334.8334 0 1 1 0 1.6667h-5A.8333.8333 0 0 1 5 8.3334Zm.8333 1.6667a.8333.8333 0 1 0 0 1.6666H7.5a.8333.8333 0 1 0 0-1.6666H5.8333Z" fill="currentColor"/></svg>