<svg viewBox="0 0 20 20" fill="none" xmlns="http://www.w3.org/2000/svg"><path fill-rule="evenodd" clip-rule="evenodd" d="M10.4417 1.7934a.8334.8334 0 0 0-.8834 0L2.8917 5.9601a.8334.8334 0 0 0-.3917.7067v7.4999c0 .3157.1783.6042.4607.7454l6.6666 3.3333a.8334.8334 0 0 0 .7454 0l6.6666-3.3333a.8333.8333 0 0 0 .4607-.7454V8.3334a.8333.8333 0 1 0-1.6667 0v5.3183L10 16.5684l-5.8333-2.9167v-6.523L10 3.4826l2.8917 1.8074a.8333.8333 0 1 0 .8833-1.4133l-3.3333-2.0834Zm1.225 8.2067c0 .9205-.7462 1.6666-1.6667 1.6666-.9205 0-1.6667-.7461-1.6667-1.6666 0-.9205.7462-1.6667 1.6667-1.6667.9205 0 1.6667.7462 1.6667 1.6667Zm1.6666 0c0 1.8409-1.4924 3.3333-3.3333 3.3333-1.841 0-3.3333-1.4924-3.3333-3.3333 0-1.841 1.4924-3.3333 3.3333-3.3333S13.3333 8.159 13.3333 10Z" fill="currentColor"/></svg>