<svg viewBox="0 0 20 20" fill="none" xmlns="http://www.w3.org/2000/svg"><path fill-rule="evenodd" clip-rule="evenodd" d="M12.7521 4.2705c-1.2537-.1781-2.5725.2155-3.5358 1.179-1.6272 1.6271-1.6272 4.2653 0 5.8925 1.6271 1.6272 4.2653 1.6272 5.8925 0 .9634-.9634 1.357-2.2822 1.1789-3.536l-1.5609 1.561a.8334.8334 0 0 1-.7476.2289l-1.9749-.382a.8333.8333 0 0 1-.6599-.66l-.3821-1.975a.8332.8332 0 0 1 .2289-.7474l1.5609-1.561Zm4.6978 1.658c1.0071 2.1586.6211 4.8083-1.1626 6.592-2.278 2.278-5.9715 2.278-8.2496 0-2.278-2.2781-2.278-5.9715 0-8.2496 1.7842-1.7842 4.4349-2.1699 6.5939-1.1617a.8334.8334 0 0 1 .2769 1.362L12.6827 6.697l.191.9875.9875.191 2.2259-2.2258a.8333.8333 0 0 1 1.3628.2788Zm-11.18 6.0027a.8333.8333 0 0 1 0 1.1785l-1.1784 1.1786A.8333.8333 0 1 0 6.27 15.4668l1.1785-1.1785a.8333.8333 0 1 1 1.1785 1.1785l-1.1785 1.1785c-.9763.9763-2.5592.9763-3.5356 0-.9763-.9763-.9763-2.5592 0-3.5356l1.1786-1.1785a.8334.8334 0 0 1 1.1785 0Z" fill="currentColor"/></svg>