<svg viewBox="0 0 24 24" fill="none" xmlns="http://www.w3.org/2000/svg"><path fill-rule="evenodd" clip-rule="evenodd" d="M12 2c-.5523 0-1 .4477-1 1s.4477 1 1 1h5v16h-5c-.5523 0-1 .4477-1 1s.4477 1 1 1h6c.5523 0 1-.4477 1-1V3c0-.5523-.4477-1-1-1h-6Zm-2 9c-.5523 0-1 .4477-1 1s.4477 1 1 1h4c.5523 0 1-.4477 1-1s-.4477-1-1-1h-4Zm-.2929-3.7071c.3905.3905.3905 1.0237 0 1.4142L6.4142 12l3.293 3.2929c.3904.3905.3904 1.0237 0 1.4142-.3906.3905-1.0238.3905-1.4143 0l-3.9995-3.9995-.0005-.0005a.999.999 0 0 1-.2746-.8981.9952.9952 0 0 1 .2746-.5161l4-4c.3905-.3905 1.0237-.3905 1.4142 0Z" fill="currentColor"/></svg>