<svg viewBox="0 0 20 20" fill="none" xmlns="http://www.w3.org/2000/svg"><path fill-rule="evenodd" clip-rule="evenodd" d="M10 3.3333c-3.6819 0-6.6667 2.9848-6.6667 6.6667 0 3.6819 2.9848 6.6667 6.6667 6.6667 3.6819 0 6.6667-2.9848 6.6667-6.6667 0-1.0658-.2495-2.071-.6925-2.9625a.8332.8332 0 0 1 .3754-1.1171.8333.8333 0 0 1 1.1171.3754c.555 1.1168.8667 2.3753.8667 3.7042 0 4.6024-3.731 8.3333-8.3334 8.3333-4.6024 0-8.3333-3.7309-8.3333-8.3333 0-4.6024 3.731-8.3333 8.3333-8.3333 1.7119 0 3.3056.517 4.6302 1.4037a.8333.8333 0 1 1-.9271 1.385c-1.0588-.7087-2.3314-1.122-3.7031-1.122ZM8.3333 6.6667c.4603 0 .8334.373.8334.8333v5a.8333.8333 0 0 1-1.6667 0v-5a.8333.8333 0 0 1 .8333-.8333ZM12.5 7.5a.8333.8333 0 1 0-1.6666 0v5a.8333.8333 0 0 0 1.6666 0v-5Z" fill="#4C53F0"/></svg>