<svg viewBox="0 0 20 20" fill="none" xmlns="http://www.w3.org/2000/svg"><path fill-rule="evenodd" clip-rule="evenodd" d="M3.3333 10c0-3.682 2.9848-6.6667 6.6667-6.6667 3.6819 0 6.6666 2.9848 6.6666 6.6667 0 3.6819-2.9847 6.6667-6.6666 6.6667-3.682 0-6.6667-2.9848-6.6667-6.6667ZM10 1.6667c-4.6024 0-8.3334 3.731-8.3334 8.3333 0 4.6024 3.731 8.3333 8.3334 8.3333 4.6023 0 8.3333-3.7309 8.3333-8.3333 0-4.6024-3.731-8.3333-8.3333-8.3333ZM8.775 6.6302c-.555-.347-1.275.0521-1.275.7066v5.3263c0 .6545.72 1.0536 1.275.7067l4.261-2.6632c.5222-.3264.5222-1.087 0-1.4133L8.775 6.6302Z" fill="#4C53F0"/></svg>