<svg width="16" height="16" viewBox="0 0 16 16" fill="none" xmlns="http://www.w3.org/2000/svg">
<path fill-rule="evenodd" clip-rule="evenodd" d="M8.83333 1.33333C8.83333 0.873096 8.46024 0.5 8 0.5C7.53976 0.5 7.16667 0.873096 7.16667 1.33333V5.5C7.16667 5.96024 7.53976 6.33333 8 6.33333C8.46024 6.33333 8.83333 5.96024 8.83333 5.5V1.33333ZM8.83333 10.5C8.83333 10.0398 8.46024 9.66667 8 9.66667C7.53976 9.66667 7.16667 10.0398 7.16667 10.5V14.6667C7.16667 15.1269 7.53976 15.5 8 15.5C8.46024 15.5 8.83333 15.1269 8.83333 14.6667V10.5ZM15.5 8C15.5 8.46024 15.1269 8.83333 14.6667 8.83333H10.5C10.0398 8.83333 9.66667 8.46024 9.66667 8C9.66667 7.53976 10.0398 7.16667 10.5 7.16667L14.6667 7.16667C15.1269 7.16667 15.5 7.53976 15.5 8ZM5.5 8.83333C5.96024 8.83333 6.33333 8.46024 6.33333 8C6.33333 7.53976 5.96024 7.16667 5.5 7.16667L1.33333 7.16667C0.873096 7.16667 0.5 7.53976 0.5 8C0.5 8.46024 0.873096 8.83333 1.33333 8.83333H5.5Z" fill="white"/>
</svg>
