<svg width="21" height="19" viewBox="0 0 21 19" fill="none" xmlns="http://www.w3.org/2000/svg">
<path d="M16.1284 6.1002C15.7618 5.89067 15.2903 5.89067 14.8712 6.1002L11.9378 7.82883L9.94729 8.92886L7.06625 10.6575C6.69958 10.867 6.22813 10.867 5.80907 10.6575L3.55663 9.29554C3.18995 9.08601 2.92804 8.66695 2.92804 8.1955V5.57638C2.92804 5.15732 3.13757 4.73826 3.55663 4.47634L5.80907 3.16678C6.17575 2.95725 6.64719 2.95725 7.06625 3.16678L9.3187 4.52873C9.68538 4.73826 9.94729 5.15732 9.94729 5.62876V7.35738L11.9378 6.20497V4.42396C11.9378 4.0049 11.7283 3.58584 11.3092 3.32393L7.11864 0.861951C6.75196 0.652421 6.28052 0.652421 5.86146 0.861951L1.56609 3.37631C1.14703 3.58584 0.9375 4.0049 0.9375 4.42396V9.34792C0.9375 9.76698 1.14703 10.186 1.56609 10.448L5.80907 12.9099C6.17575 13.1195 6.64719 13.1195 7.06625 12.9099L9.94729 11.2337L11.9378 10.0813L14.8189 8.40503C15.1855 8.1955 15.657 8.1955 16.076 8.40503L18.3285 9.7146C18.6952 9.92413 18.9571 10.3432 18.9571 10.8146V13.4338C18.9571 13.8528 18.7476 14.2719 18.3285 14.5338L16.1284 15.8434C15.7618 16.0529 15.2903 16.0529 14.8712 15.8434L12.6188 14.5338C12.2521 14.3243 11.9902 13.9052 11.9902 13.4338V11.7575L9.99967 12.9099V14.6386C9.99967 15.0576 10.2092 15.4767 10.6283 15.7386L14.8712 18.2006C15.2379 18.4101 15.7094 18.4101 16.1284 18.2006L20.3714 15.7386C20.7381 15.5291 21 15.11 21 14.6386V9.66221C21 9.24315 20.7905 8.82409 20.3714 8.56218L16.1284 6.1002Z" fill="#8247E5"/>
</svg>
