<svg width="13" height="14" viewBox="0 0 13 14" fill="none" xmlns="http://www.w3.org/2000/svg">
<path fill-rule="evenodd" clip-rule="evenodd" d="M5.66634 9.66666C3.4572 9.66666 1.66634 7.8758 1.66634 5.66666C1.66634 3.45752 3.4572 1.66666 5.66634 1.66666C7.87548 1.66666 9.66634 3.45752 9.66634 5.66666C9.66634 7.8758 7.87548 9.66666 5.66634 9.66666ZM0.333008 5.66666C0.333008 8.61218 2.72082 11 5.66634 11C8.61186 11 10.9997 8.61218 10.9997 5.66666C10.9997 2.72114 8.61186 0.333328 5.66634 0.333328C2.72082 0.333328 0.333008 2.72114 0.333008 5.66666ZM10.7305 10.1213C10.4701 9.86097 10.048 9.86097 9.78767 10.1213C9.52732 10.3817 9.52732 10.8038 9.78767 11.0641L11.6733 12.9497C11.9336 13.2101 12.3557 13.2101 12.6161 12.9497C12.8764 12.6894 12.8764 12.2673 12.6161 12.0069L10.7305 10.1213Z" fill="#9A98BC"/>
</svg>
