<svg viewBox="0 0 20 20" fill="none" xmlns="http://www.w3.org/2000/svg"><path fill-rule="evenodd" clip-rule="evenodd" d="M6.6667 3.3333c0-.4602.373-.8333.8333-.8333h5a.8333.8333 0 0 1 .8333.8333v5a.8333.8333 0 0 1-.8333.8334h-5a.8333.8333 0 0 1-.8333-.8334v-5Zm1.6666.8334V7.5h3.3334V4.1667H8.3333Zm2.5 7.5a.8334.8334 0 0 1 .8334-.8334h5a.8333.8333 0 0 1 .8333.8334v5a.8333.8333 0 0 1-.8333.8333h-5a.8333.8333 0 0 1-.8334-.8333v-5ZM12.5 12.5v3.3333h3.3333V12.5H12.5Zm-9.1667-1.6667a.8334.8334 0 0 0-.8333.8334v5c0 .4602.3731.8333.8333.8333h5a.8333.8333 0 0 0 .8334-.8333v-5a.8334.8334 0 0 0-.8334-.8334h-5Zm.8334 5V12.5H7.5v3.3333H4.1667Z" fill="currentColor"/></svg>