<svg viewBox="0 0 20 20" fill="none" xmlns="http://www.w3.org/2000/svg"><path fill-rule="evenodd" clip-rule="evenodd" d="M7.256 7.256a.8333.8333 0 1 1-1.1786-1.1786l3.3334-3.3333a.8334.8334 0 0 1 1.1785 0l3.3333 3.3333a.8334.8334 0 0 1-1.1785 1.1785l-1.9108-1.9107V12.5a.8333.8333 0 0 1-1.6666 0V5.3452L7.2559 7.2559Zm-3.0893 4.4107A.8333.8333 0 0 1 5 12.5v3.3333h10V12.5a.8333.8333 0 0 1 1.6667 0v4.1667a.8333.8333 0 0 1-.8334.8333H4.1667a.8333.8333 0 0 1-.8334-.8333V12.5a.8333.8333 0 0 1 .8334-.8333Z" fill="currentColor"/></svg>