<svg viewBox="0 0 20 20" fill="none" xmlns="http://www.w3.org/2000/svg"><path fill-rule="evenodd" clip-rule="evenodd" d="M5.8333 6.6667C5.8333 4.3655 7.6988 2.5 10 2.5c2.3012 0 4.1667 1.8655 4.1667 4.1667 0 2.3012-1.8655 4.1666-4.1667 4.1666-2.3012 0-4.1667-1.8654-4.1667-4.1666ZM10 4.1667c-1.3807 0-2.5 1.1193-2.5 2.5s1.1193 2.5 2.5 2.5 2.5-1.1193 2.5-2.5-1.1193-2.5-2.5-2.5Zm-5.8333 9.1666c0-.4602.373-.8333.8333-.8333h10a.8333.8333 0 0 1 0 1.6667H5a.8333.8333 0 0 1-.8333-.8334Zm3.3333 2.5a.8333.8333 0 0 0 0 1.6667h5a.8333.8333 0 0 0 0-1.6667h-5Z" fill="currentColor"/></svg>