<svg viewBox="0 0 20 20" fill="none" xmlns="http://www.w3.org/2000/svg"><path fill-rule="evenodd" clip-rule="evenodd" d="M1.6667 2.5c0-.4603.373-.8334.8333-.8334h8.3333c.4603 0 .8334.3731.8334.8334v5A.8333.8333 0 0 1 10 7.5V3.3333H3.3333V10h3.3334a.8334.8334 0 0 1 0 1.6666H2.5a.8333.8333 0 0 1-.8333-.8333V2.5Zm12.5 8.3333A.8334.8334 0 0 1 15 10h2.5a.8334.8334 0 0 1 .8333.8333V17.5a.8333.8333 0 0 1-.8333.8333h-6.6667A.8333.8333 0 0 1 10 17.5v-3.3334a.8333.8333 0 0 1 1.6667 0v2.5h5v-5H15a.8333.8333 0 0 1-.8333-.8333Zm-6.9108-4.756A.8333.8333 0 1 0 6.0774 7.256l7.0833 7.0833a.8334.8334 0 0 0 1.1786-1.1785L7.2559 6.0774Z" fill="currentColor"/></svg>