<svg width="18" height="18" viewBox="0 0 18 18" fill="none" xmlns="http://www.w3.org/2000/svg">
<path fill-rule="evenodd" clip-rule="evenodd" d="M5.66699 1.49996C5.66699 1.03972 6.04009 0.666626 6.50033 0.666626H11.5003C11.9606 0.666626 12.3337 1.03972 12.3337 1.49996V3.99996L16.5003 3.99996C16.9606 3.99996 17.3337 4.37305 17.3337 4.83329C17.3337 5.29353 16.9606 5.66663 16.5003 5.66663L1.50033 5.66663C1.04009 5.66663 0.666992 5.29353 0.666992 4.83329C0.666992 4.37306 1.04009 3.99996 1.50033 3.99996L5.66699 3.99996V1.49996ZM10.667 2.33329V3.99996H7.33366V2.33329H10.667ZM2.33366 7.33329V16.5C2.33366 16.9602 2.70675 17.3333 3.16699 17.3333H14.8337C15.2939 17.3333 15.667 16.9602 15.667 16.5V7.33329H14.0003V15.6666H4.00033V7.33329H2.33366Z" fill="currentColor"/>
</svg>
