<svg viewBox="0 0 20 20" fill="none" xmlns="http://www.w3.org/2000/svg"><path fill-rule="evenodd" clip-rule="evenodd" d="M1.6667 3.3333c0-.4602.373-.8333.8333-.8333h15a.8333.8333 0 0 1 0 1.6667H3.3333v11.6666H17.5a.8333.8333 0 0 1 0 1.6667h-15a.8333.8333 0 0 1-.8333-.8333V3.3333Zm7.5 3.3334c0-.4603.373-.8334.8333-.8334h7.5a.8333.8333 0 0 1 .8333.8334v6.6666a.8333.8333 0 0 1-.8333.8334H10a.8333.8333 0 0 1-.8333-.8334V6.6667Zm1.6666.8333v5h5.8334v-5h-5.8334ZM15 10.8333a.8333.8333 0 1 0 0-1.6666.8333.8333 0 0 0 0 1.6666Z" fill="currentColor"/></svg>